<?xml version="1.0" encoding="utf-8"?>
<!-- Generator: Adobe Illustrator 26.0.0, SVG Export Plug-In . SVG Version: 6.00 Build 0)  -->
<svg version="1.1" id="layer_1" xmlns="http://www.w3.org/2000/svg" xmlns:xlink="http://www.w3.org/1999/xlink" x="0px" y="0px"
	 viewBox="0 0 128 111" style="enable-background:new 0 0 128 111;" xml:space="preserve">
<style type="text/css">
	.st0{fill:#FD7400;}
	.st1{fill:#FFFFFF;}
</style>
<path class="st0" d="M42.09,18.17H33.2c-0.34,0-0.59-0.28-0.55-0.62l0.93-8.89c0.04-0.34,0.34-0.62,0.68-0.62h8.89
	c0.34,0,0.59,0.28,0.55,0.62l-0.93,8.89C42.73,17.89,42.43,18.17,42.09,18.17z"/>
<path class="st0" d="M51.04,10.06h-4.27c-0.16,0-0.28-0.13-0.27-0.3l0.45-4.27c0.02-0.16,0.16-0.3,0.33-0.3h4.27
	c0.16,0,0.28,0.13,0.27,0.3l-0.45,4.27C51.35,9.92,51.2,10.06,51.04,10.06z"/>
<path class="st0" d="M26.63,38.91H8.6c-0.54,0-0.93-0.44-0.87-0.99l2.2-18.02c0.07-0.54,0.57-0.99,1.11-0.99h18.02
	c0.54,0,0.93,0.44,0.87,0.99l-2.2,18.02C27.67,38.47,27.17,38.91,26.63,38.91z"/>
<path class="st1" d="M19.24,99.72H2.26c-0.52,0-0.89-1.02-0.83-1.48L7.51,51.8c0.06-0.47,0.53-1.47,1.05-1.47h16.97
	c0.52,0,0.99,1.01,0.83,1.47l-6.08,46.44C20.23,98.71,19.75,99.72,19.24,99.72z"/>
<path class="st1" d="M61.85,100.73H44.88c-0.52,0-0.89-0.43-0.83-0.96l6.53-53.86c0.06-0.53,0.54-0.96,1.06-0.96h16.97
	c0.52,0,0.89,0.43,0.83,0.96l-6.53,53.86C62.85,100.3,62.37,100.73,61.85,100.73z"/>
<g>
	<path class="st1" d="M93.55,77.02c1,0.07,1.43,0.93,1.29,2.02c-0.3,1.16-0.97,1.5-2,1.57h-7.01l-0.8,4.03h8.93
		c0.93,0.07,1.32,0.65,1.18,1.74c-0.29,1.09-0.91,1.67-1.87,1.74h-8.39c1.52,4.43,3.89,7.44,7.14,9.04c0.84,0.51,1.34,0.91,1.5,1.2
		c0.13,0.44-0.02,1.02-0.46,1.74c-0.71,1.02-1.79,1.16-3.24,0.44c-3.63-1.82-6.19-4.68-7.66-8.6c-2.35,3.05-5.25,5.29-9.82,7.83
		c-1.81,1.09-2.68,1.16-3.14,0.22c-0.58-1.09-0.23-1.96,1.06-2.61c5.4-2.69,8.26-5.4,10.26-9.25h-7.84c-1-0.07-1.47-0.65-1.4-1.74
		c0.29-1.09,0.95-1.67,1.98-1.74h8.39l0.8-4.03l-7.07-0.28c-1.07-0.07-1.53-0.69-1.37-1.85c0.29-1.09,0.99-1.39,2.09-1.46H93.55z"/>
	<path class="st1" d="M118.61,89c0.78,0.07,1.68,0.58,1.56,1.52c-0.26,0.94-0.55,1.45-1.44,1.52h-7.18l-1.13,5.66h9.58
		c0.86,0.07,1.23,0.54,1.13,1.42c-0.32,0.87-0.92,1.34-1.81,1.42H97.23c-0.86-0.07-1.24-0.54-1.13-1.42
		c0.24-0.87,0.81-1.34,1.7-1.42h9.26l1.13-5.66h-6.12c-0.93-0.07-1.4-0.71-1.39-1.52c0-0.98,0.59-1.45,1.55-1.52H118.61z
		 M106.96,82.79c0.9-0.51,1.61-0.44,2.13,0.22c0.36,0.73,0.15,1.42-0.63,2.07c-2.37,1.67-5.25,3.05-8.66,4.14
		c-1.22,0.29-1.89,0-2.01-0.87c0.04-0.94,0.64-1.6,1.81-1.96C101.93,85.66,104.38,84.46,106.96,82.79z M122.99,78.33
		c1.45,0,2.03,0.54,1.74,1.63c-0.39,1.24-0.92,2.43-1.59,3.59c-0.57,1.02-1.22,1.56-1.96,1.63c0.06,0.07,0.19,0.15,0.39,0.22
		c0.65,0.36,1.1,0.65,1.35,0.87c0.58,0.73,0.58,1.45,0,2.18c-0.64,0.65-1.36,0.8-2.16,0.44c-1.99-1.31-4.16-2.47-6.5-3.49
		c-0.86-0.44-1.05-1.09-0.59-1.96c0.59-0.8,1.37-1.05,2.33-0.76c1.29,0.44,2.53,0.98,3.71,1.63c-0.15-0.36-0.15-0.72,0-1.09
		c0.11-0.22,0.32-0.51,0.61-0.87c-0.09,0.07-0.02-0.07,0.2-0.44c0.2-0.29,0.12-0.44-0.24-0.44h-17.1c-0.22,0-0.35,0.11-0.39,0.33
		l-0.39,1.96c-0.23,0.8-0.83,1.24-1.78,1.31c-0.93-0.07-1.35-0.51-1.27-1.31l0.65-3.27c0.23-1.52,1.1-2.25,2.61-2.18h8.28
		c-0.32-1.31-0.05-2.14,0.82-2.51c1.26-0.51,2.1-0.36,2.53,0.44c0.16,0.29,0.33,0.87,0.53,1.74c0.04,0.15,0.06,0.26,0.04,0.33
		H122.99z"/>
</g>
<path class="st1" d="M87.98,31.23c0,0-28.98,0.05-42.21,0h-4.08c-1.49,0.01-2.36,0.04-2.37,0.08l-1.84,9.94
	c-0.07,0.34-0.46,0.62-0.86,0.62h-9.75l-1.47,8.89c-0.09,0.54,0.36,1.59,1,1.59h58.26c0.64,0,1.24-1.04,1.33-1.59l2.98-18.02
	C89.07,32.19,88.84,31.23,87.98,31.23z"/>
</svg>
